<svg xmlns="http://www.w3.org/2000/svg" width="17" height="17" viewBox="0 0 17 17">
    <g fill="none" fill-rule="evenodd">
        <g fill="#FFF">
            <g>
                <path d="M5.313 15.938c.586 0 1.062-.476 1.062-1.063s-.476-1.063-1.063-1.063c-.586 0-1.062.476-1.062 1.063s.476 1.063 1.063 1.063zm7.437 0c.587 0 1.063-.476 1.063-1.063s-.476-1.063-1.063-1.063-1.063.476-1.063 1.063.476 1.063 1.063 1.063zm2.125-12.22H3.092l-.436-2.23c-.051-.252-.275-.43-.531-.426H0v1.063h1.69l2.029 10.2c.051.251.275.43.531.425h9.563v-1.063H4.685L4.25 9.563h9.563c.253.006.475-.168.53-.415l1.063-4.781c.036-.16-.003-.327-.107-.454s-.26-.198-.424-.194zM13.387 8.5H4.048l-.744-3.719h10.907L13.387 8.5z" transform="translate(-287 -16) translate(287 16)"/>
            </g>
        </g>
    </g>
</svg>
