<svg xmlns="http://www.w3.org/2000/svg" width="20" height="17" viewBox="0 0 20 17">
    <g fill="none" fill-rule="evenodd">
        <g fill="#FFF">
            <g>
                <path d="M3.031 12.75H16.97c.293 0 .531.238.531.531 0 .294-.238.531-.531.531H3.03c-.293 0-.531-.237-.531-.53 0-.294.238-.532.531-.532zm0-4.781H16.97c.293 0 .531.238.531.531 0 .293-.238.531-.531.531H3.03c-.293 0-.531-.238-.531-.531 0-.293.238-.531.531-.531zm0-4.782H16.97c.293 0 .531.238.531.532 0 .293-.238.531-.531.531H3.03c-.293 0-.531-.238-.531-.531 0-.294.238-.531.531-.531z" transform="translate(-16 -16) translate(16 16)"/>
            </g>
        </g>
    </g>
</svg>
