<svg xmlns="http://www.w3.org/2000/svg" width="20" height="20" viewBox="0 0 20 20">
    <g fill="none" fill-rule="evenodd">
        <g fill="#000">
            <g>
                <g>
                    <g>
                        <path d="M17.5 3.75h-15c-.69 0-1.25.56-1.25 1.25v10c0 .69.56 1.25 1.25 1.25h15c.69 0 1.25-.56 1.25-1.25V5c0-.69-.56-1.25-1.25-1.25zM16.125 5L10 9.238 3.875 5h12.25zM2.5 15V5.569l7.144 4.943c.214.15.498.15.712 0L17.5 5.57V15h-15z" transform="translate(-33 -9815) translate(0 9578) translate(33 117) translate(0 120)"/>
                    </g>
                </g>
            </g>
        </g>
    </g>
</svg>
