<svg xmlns="http://www.w3.org/2000/svg" width="20" height="20" viewBox="0 0 20 20">
    <g fill="none" fill-rule="evenodd">
        <g fill-rule="nonzero">
            <g>
                <g>
                    <g>
                        <path fill="#3B5999" d="M17.5 0h-15C1.12 0 0 1.12 0 2.5v15C0 18.878 1.12 20 2.5 20h15c1.378 0 2.5-1.122 2.5-2.5v-15C20 1.12 18.878 0 17.5 0z" transform="translate(-95 -9735) translate(0 9578) translate(33 117) translate(62 40)"/>
                        <path fill="#FFF" d="M13.75 10V7.5c0-.69.56-.625 1.25-.625h1.25V3.75h-2.5C11.678 3.75 10 5.428 10 7.5V10H7.5v3.125H10V20h3.75v-6.875h1.875L16.875 10H13.75z" transform="translate(-95 -9735) translate(0 9578) translate(33 117) translate(62 40)"/>
                    </g>
                </g>
            </g>
        </g>
    </g>
</svg>
